HIERARCHY
ROOT Bip001_Pelvis
{
  OFFSET 34.4345 95.6767 -26.8758
  CHANNELS 6 Xposition Yposition Zposition Zrotation Xrotation Yrotation
  JOINT Bip001_Spine
  {
    OFFSET 1.4188e-005 10.2191 -0.0116013
    CHANNELS 3 Zrotation Xrotation Yrotation
    JOINT Bip001_L_Thigh
    {
      OFFSET 11.0458 -10.2192 0.0116197
      CHANNELS 3 Zrotation Xrotation Yrotation
      JOINT Bip001_L_Calf
      {
        OFFSET -0.707118 -44.0221 0.360014
        CHANNELS 3 Zrotation Xrotation Yrotation
        JOINT Bip001_L_Foot
        {
          OFFSET -0.651902 -40.5938 -3.56146
          CHANNELS 3 Zrotation Xrotation Yrotation
          JOINT Bip001_L_Toe0
          {
            OFFSET 0.0530839 -10.2181 13.1504
            CHANNELS 3 Zrotation Xrotation Yrotation
            End Site
            {
              OFFSET -1.02532e-005 0 7.55606
            }
          }
        }
      }
    }
    JOINT Bip001_R_Thigh
    {
      OFFSET -11.0458 -10.2191 0.0115893
      CHANNELS 3 Zrotation Xrotation Yrotation
      JOINT Bip001_R_Calf
      {
        OFFSET 0.706994 -44.0221 0.35984
        CHANNELS 3 Zrotation Xrotation Yrotation
        JOINT Bip001_R_Foot
        {
          OFFSET 0.651786 -40.5938 -3.5613
          CHANNELS 3 Zrotation Xrotation Yrotation
          JOINT Bip001_R_Toe0
          {
            OFFSET -0.0531479 -10.2181 13.1504
            CHANNELS 3 Zrotation Xrotation Yrotation
            End Site
            {
              OFFSET -1.02894e-005 0 7.55606
            }
          }
        }
      }
    }
    JOINT Bip001_Spine1
    {
      OFFSET 1.87041e-005 14.5736 1.08638
      CHANNELS 3 Zrotation Xrotation Yrotation
      JOINT Bip001_Spine2
      {
        OFFSET 2.24614e-005 14.5058 -1.69078
        CHANNELS 3 Zrotation Xrotation Yrotation
        JOINT Bip001_Neck
        {
          OFFSET 2.20278e-005 15.3945 -0.489414
          CHANNELS 3 Zrotation Xrotation Yrotation
          JOINT Bip001_L_Clavicle
          {
            OFFSET 6.06036 -0.000579998 0.00836775
            CHANNELS 3 Zrotation Xrotation Yrotation
            JOINT Bip001_L_UpperArm
            {
              OFFSET 11.5509 -0.0600302 0.00193952
              CHANNELS 3 Zrotation Xrotation Yrotation
              JOINT Bip001_L_Forearm
              {
                OFFSET 25.9523 0.0806089 -2.15551
                CHANNELS 3 Zrotation Xrotation Yrotation
                JOINT Bip001_L_Hand
                {
                  OFFSET 32.2475 0.153767 1.63968
                  CHANNELS 3 Zrotation Xrotation Yrotation
                  JOINT Bip001_L_Finger0
                  {
                    OFFSET 6.04639 -2.20976 5.90322
                    CHANNELS 3 Zrotation Xrotation Yrotation
                    End Site
                    {
                      OFFSET 4.22375 -1.43895 0.606485
                    }
                  }
                  JOINT Bip001_L_Finger1
                  {
                    OFFSET 11.0826 -0.704819 -0.198153
                    CHANNELS 3 Zrotation Xrotation Yrotation
                    End Site
                    {
                      OFFSET 6.20027 -0.397518 -0.0787166
                    }
                  }
                }
              }
            }
          }
          JOINT Bip001_R_Clavicle
          {
            OFFSET -6.06037 -0.000563197 0.00835105
            CHANNELS 3 Zrotation Xrotation Yrotation
            JOINT Bip001_R_UpperArm
            {
              OFFSET -11.5509 -0.0599978 0.00190698
              CHANNELS 3 Zrotation Xrotation Yrotation
              JOINT Bip001_R_Forearm
              {
                OFFSET -25.9523 0.0806822 -2.15589
                CHANNELS 3 Zrotation Xrotation Yrotation
                JOINT Bip001_R_Hand
                {
                  OFFSET -32.2475 0.153859 1.63989
                  CHANNELS 3 Zrotation Xrotation Yrotation
                  JOINT Bip001_R_Finger0
                  {
                    OFFSET -6.04641 -2.20976 5.90317
                    CHANNELS 3 Zrotation Xrotation Yrotation
                    End Site
                    {
                      OFFSET -4.22376 -1.43895 0.60647
                    }
                  }
                  JOINT Bip001_R_Finger1
                  {
                    OFFSET -11.0826 -0.704794 -0.198182
                    CHANNELS 3 Zrotation Xrotation Yrotation
                    End Site
                    {
                      OFFSET -6.20028 -0.397504 -0.0787333
                    }
                  }
                }
              }
            }
          }
          JOINT Bip001_Head
          {
            OFFSET 1.09673e-005 11.2744 2.05948
            CHANNELS 3 Zrotation Xrotation Yrotation
            End Site
            {
              OFFSET 2.89576e-005 20.8808 -2.77728e-005
            }
          }
        }
      }
    }
  }
}
MOTION
Frames:	15
Frame Time:	0.04
32.2253 94.8392 -30.4059 -1.96596 0.00072449 22.3364 -0.0123818 1.89512 1.30331 7.94731 -14.6976 0.0719246 -0.381443 20.2592 -14.233 2.65377 -7.08411 0.0376034 1.27687 -4.71008 -1.04069 -0.467402 -1.96234 -4.14372 3.02759 12.3807 -2.51285 -11.9106 -6.21689 -19.2423 2.85018 -9.55388 3.09308 -0.0762023 3.78954 2.60931 -0.0723319 3.78949 2.60959 2.5166 -9.37079 -2.88468 -29.0289 10.3048 -0.286419 -45.5103 37.3374 0.754151 15.4437 -4.57827 -29.3582 8.28299 -0.0858211 -4.05289 -3.97569e-015 -4.77083e-015 -0 -3.18055e-015 -4.77083e-015 6.36111e-015 14.2078 16.0405 22.9433 22.9555 -51.4631 4.16181 -61.4442 -4.75189 91.9141 -41.0204 -3.60365 1.48942 1.59028e-015 0 1.98785e-015 3.18055e-015 0 1.59028e-015 -5.79512 9.59917 -0.426699 
31.9616 94.6871 -30.2672 -1.92383 0.328164 27.4637 0.00285756 1.87057 1.53673 7.23717 -16.4629 -1.49425 -0.195382 20.61 -17.9389 2.60234 -6.73749 0.0242102 1.20618 -4.79383 -0.993894 -0.0173987 -1.81193 -4.41205 3.37505 12.6589 -2.92417 -12.7793 -5.59031 -23.0752 2.91796 -9.59729 2.94311 -0.048343 3.74008 3.07572 -0.0466749 3.74034 3.07592 1.79117 -11.9497 -4.77856 -28.9848 12.1155 1.42956 -46.0735 35.0917 1.55421 15.3629 -4.98642 -31.3372 8.0175 0.333116 -4.25144 7.95139e-015 1.59028e-015 -0 7.55382e-015 -1.59028e-015 -3.18055e-015 12.7641 18.8723 25.4805 24.36 -48.3179 16.2595 -65.444 1.81275 81.289 -39.0551 -3.6862 1.67201 -1.98626e-031 3.18055e-015 3.57812e-015 -1.59028e-015 0 -0 -4.88736 11.847 -2.55354 
31.8254 94.5402 -30.0149 -1.32758 0.198158 31.7804 -0.0133341 2.00297 1.81838 6.31225 -17.1668 -1.01034 0.552847 20.6012 -23.1542 2.37923 -6.46854 0.0211269 1.08833 -4.98024 -0.838764 0.103768 -1.29113 -5.07312 3.6753 13.2632 -3.15221 -13.5861 -5.17904 -26.1455 3.01305 -9.70144 2.77385 -0.0971044 4.00446 3.64121 -0.0937184 4.00446 3.64118 0.479508 -13.6725 -6.73738 -27.7359 13.2036 2.93306 -46.8658 32.9178 2.66752 14.7139 -4.957 -33.8959 7.49706 0.468417 -4.43678 1.98785e-016 7.95139e-016 9.54166e-015 3.37934e-015 3.97569e-016 6.36111e-015 8.81825 19.6505 28.1311 30.9156 -47.4294 30.7536 -78.9567 9.9524 69.9871 -25.1554 -7.7429 2.85378 1.59028e-015 -3.18055e-015 2.38542e-015 -0 0 7.95139e-016 -2.97668 13.3545 -5.16751 
31.6013 94.429 -29.6265 -1.07912 0.293198 36.4764 -0.187743 1.94628 1.55071 5.93398 -17.8226 -0.707892 0.899322 20.2264 -28.2019 2.8197 -5.548 -8.45354e-006 1.10996 -5.65906 -0.70471 0.859166 -0.632889 -5.81521 3.73862 13.325 -2.86477 -14.3018 -4.35394 -29.2298 3.15276 -9.8592 2.53204 -0.428378 3.88671 3.11041 -0.428381 3.88675 3.11042 1.31109 -13.6008 -8.19367 -26.9523 12.1684 5.2643 -47.8557 30.9525 3.46516 16.9234 -1.47614 -35.5545 4.36646 0.525307 -4.27769 3.97569e-015 0 -0 6.75868e-015 -1.19271e-015 -0 9.3853 19.8542 26.9038 41.9745 -56.6675 42.9102 -76.8595 7.65526 73.1429 -7.03068 -11.6088 -1.50892 -3.18055e-015 -3.18055e-015 -0 -9.54166e-015 0 1.59028e-015 -2.49959 15.0566 -6.48964 
31.6159 94.4677 -29.4403 -0.509971 0.697825 39.8685 -0.476045 1.61874 0.800968 5.23787 -17.4181 -1.95856 0.779669 18.9588 -29.4222 1.49125 -5.338 0.00329068 0.675635 -5.06193 -0.333289 0.754005 0.134731 -6.07935 4.14962 13.4001 -2.69942 -14.8283 -3.69163 -31.1961 3.24712 -9.96265 2.36374 -0.975279 3.23061 1.61636 -0.97528 3.23061 1.61636 5.49629 -9.56377 -9.05208 -27.8293 7.44338 4.80557 -51.6149 29.121 7.13441 16.7557 -1.11276 -35.9453 6.19075 0.540585 -4.59152 -7.92654e-015 4.96962e-016 -0 -4.84538e-015 2.98177e-016 3.18055e-015 9.06452 15.9046 24.6097 34.1 -53.7267 38.573 -71.3435 5.00359 74.7214 -12.1861 -7.85553 2.32361 3.18055e-015 -3.18055e-015 -7.95139e-016 4.41391e-032 -3.18056e-015 7.95139e-016 -4.74124 14.8109 -5.68167 
31.848 94.6696 -29.3924 1.06027 0.106287 37.7759 -0.448648 1.55955 0.400338 4.80704 -14.4637 1.45295 1.37012 17.2149 -30.0274 -0.0428906 -5.70684 0.00400613 0.295754 -3.98843 -0.140739 -0.444727 1.29295 -5.68346 3.90509 13.8199 -2.69795 -14.6662 -4.04983 -29.7246 3.24756 -10.0191 2.46379 -0.914734 3.11573 0.809562 -0.911132 3.11567 0.810437 6.24724 -3.97682 -8.38317 -27.7711 2.36618 2.89305 -54.2792 32.2949 9.98867 15.0144 -3.58731 -33.539 7.66308 -0.090378 -5.11007 4.17448e-015 -1.19271e-015 -6.36111e-015 9.93923e-017 -1.78906e-015 -3.18055e-015 5.00017 8.86251 24.9868 41.9559 -51.2563 41.0219 -66.642 4.58704 81.368 -24.7015 -6.30455 2.4272 1.59028e-015 0 7.95139e-016 3.18055e-015 3.18056e-015 -3.97569e-016 -5.43447 12.6179 -4.61042 
31.8419 94.8258 -29.5551 1.97585 -0.845546 32.1571 -0.349056 1.77019 0.397568 5.2451 -11.8051 4.00318 1.11562 16.2438 -27.0193 -0.506764 -6.0277 0.00451991 0.0854966 -3.66999 0.053747 -1.47019 1.27019 -4.15875 3.43152 14.4786 -2.76002 -14.0444 -5.26726 -26.4341 3.11405 -9.79666 2.57038 -0.708895 3.5379 0.811063 -0.709678 3.53789 0.808843 4.39709 -1.31886 -6.59733 -27.2469 0.437734 2.14103 -54.0907 37.3711 9.62335 15.1743 -4.11706 -30.0713 5.18134 -0.0542753 -4.43087 2.38542e-015 0 9.54166e-015 3.97569e-016 0 9.54166e-015 5.55615 6.06287 25.3225 44.3917 -45.7283 43.2159 -70.7653 5.90933 82.1268 -30.3857 -10.4725 2.79547 -7.95139e-016 6.36111e-015 1.98785e-015 7.95139e-016 3.18056e-015 1.19271e-015 -4.24394 10.4154 -3.81271 
31.5169 94.9114 -29.8223 1.78512 -1.61396 27.0918 -0.194098 1.97551 0.656778 6.10758 -10.5884 3.43547 0.4468 16.2028 -21.5381 -0.778766 -6.61638 0.0048683 0.105996 -3.34859 0.0301484 -1.51508 0.717131 -3.36332 2.85454 14.483 -2.11297 -13.6322 -5.99765 -23.6159 3.00226 -9.58574 2.63562 -0.404763 3.94865 1.32394 -0.407946 3.94866 1.32245 4.0099 -1.5988 -6.88036 -27.8164 0.703813 1.9923 -53.2884 40.3413 8.43611 16.2057 -2.0595 -27.8699 4.2218 0.146909 -3.91365 7.95139e-016 0 -0 1.59028e-015 3.18056e-015 -0 5.16913 6.26926 26.2554 46.2222 -43.0186 42.1435 -70.2404 5.75186 82.6583 -28.72 -11.5554 3.97043 -1.59028e-015 3.18055e-015 -1.59028e-015 7.95139e-016 0 7.95139e-016 -3.93743 9.27817 -4.34094 
31.3819 94.9655 -30.1916 1.76752 -1.95871 23.2102 -0.172724 2.12985 0.795591 5.93985 -9.66757 2.67045 0.756302 15.8242 -17.2312 -0.887893 -6.71674 0.00507754 0.323799 -3.43409 -0.148819 -2.13373 -0.05169 -3.91367 2.75784 14.8727 -1.96146 -13.0518 -7.23349 -20.3281 2.86665 -9.31543 2.69576 -0.377098 4.25709 1.59866 -0.37639 4.25706 1.599 4.63239 -2.83842 -8.55445 -29.3795 1.56334 1.70289 -52.4969 41.4242 7.96175 16.2359 -0.912062 -27.0428 5.43536 0.0294802 -4.49755 7.95139e-015 -3.18055e-015 -3.18055e-015 7.95139e-015 -6.36111e-015 -0 7.49227 8.6311 27.1023 43.6812 -41.9092 36.519 -64.5034 3.77081 85.6971 -26.9476 -9.70496 3.87816 -1.59028e-015 6.36111e-015 -0 2.64834e-031 9.54167e-015 -1.59028e-015 -4.68139 8.44934 -5.61235 
31.0975 94.992 -30.6287 1.42634 -2.31209 19.6784 -0.129854 2.29592 0.588546 6.44813 -9.08199 4.46331 0.919914 15.6755 -15.8158 0.245693 -6.06878 0.00517791 0.695473 -4.27387 -0.331606 -2.24296 -1.03563 -3.60396 2.66708 15.2614 -1.62964 -12.4301 -7.96492 -17.9116 2.75231 -9.13144 2.81411 -0.283667 4.59036 1.18376 -0.283666 4.59036 1.18374 4.32081 -4.08031 -8.95984 -28.8595 2.51591 2.66956 -52.8828 42.3588 7.32121 16.2828 -1.34459 -26.5638 7.0959 -0.499351 -5.10811 -3.18055e-015 -6.36111e-015 -0 -3.18055e-015 -3.18056e-015 -0 9.88892 10.8582 27.4631 37.8688 -37.0784 27.6613 -58.1857 3.4402 86.8173 -32.5306 -6.20823 3.4894 1.76556e-031 3.18055e-015 -3.18055e-015 -3.18055e-015 3.18056e-015 -1.59028e-015 -3.91333 8.21904 -6.33713 
30.8707 95.0801 -30.9929 1.23531 -2.80779 15.7217 -0.0730802 2.48666 0.211668 7.05021 -7.88659 7.03311 0.790878 15.148 -14.211 0.276108 -5.95275 0.00521614 0.71321 -4.19458 -0.374369 -2.22566 -1.66664 -2.24213 2.2863 15.2324 -1.325 -11.751 -8.35827 -15.6765 2.62739 -8.88455 2.86947 -0.157494 4.97302 0.427292 -0.156541 4.97304 0.427295 3.97166 -3.79539 -8.32449 -28.882 2.16487 3.41689 -52.3389 42.4417 6.29488 16.0159 -1.94593 -26.3389 7.4545 -0.489124 -5.24564 1.59028e-015 9.54166e-015 -3.18055e-015 0 6.36111e-015 -0 13.0872 12.1346 28.9695 31.2777 -32.4833 17.1252 -59.0206 2.36979 89.155 -31.6267 -5.43048 3.89775 3.18055e-015 3.18055e-015 1.59028e-015 3.18055e-015 3.18056e-015 1.59028e-015 -3.22739 6.75751 -6.10329 
30.6518 95.1955 -31.3378 0.794897 -3.12812 12.0982 -0.0481358 2.64897 -0.0313039 7.6205 -6.89249 7.90158 0.482922 14.5062 -11.4319 0.655071 -5.53403 0.00521793 0.865787 -4.42972 -0.265295 -1.85726 -2.10857 -1.12008 1.81529 14.6256 -1.08945 -10.8882 -8.45493 -13.3609 2.55085 -8.62458 2.76035 -0.0895751 5.29798 -0.061103 -0.092284 5.298 -0.0610214 2.36797 -4.46992 -7.42411 -27.0292 3.24727 3.61056 -51.7253 42.03 5.44744 15.7083 -2.43433 -27.232 7.27925 -0.0772576 -4.66806 1.59028e-015 -3.18055e-015 -3.18055e-015 -5.29669e-031 -9.54167e-015 -3.18055e-015 17.2453 13.3615 27.0958 28.0925 -24.3832 8.78586 -59.4765 2.37032 91.2018 -33.8449 -4.82829 3.11891 1.27222e-014 0 -0 3.18055e-015 0 -0 -0.996935 6.91603 -6.30898 
30.5847 95.3286 -31.6836 0.515994 -3.00609 8.97189 -0.0456547 2.68038 -0.141266 7.72791 -6.02193 7.56659 0.141798 13.3666 -8.21411 0.874367 -4.87748 -0.00682236 0.849969 -4.63581 -0.0407128 -1.88764 -2.73699 -1.00361 1.52211 14.1557 -0.733026 -9.91337 -8.59364 -10.6699 2.50388 -8.22846 2.36338 -0.0783014 5.36115 -0.281046 -0.082805 5.36114 -0.281135 3.02569 -3.4633 -7.10341 -27.2054 2.5015 2.60715 -51.3081 42.14 4.61327 15.587 -2.98482 -27.1185 7.38682 0.0458409 -4.54382 -3.18055e-015 -3.18055e-015 -6.36111e-015 3.53113e-031 3.18056e-015 -6.36111e-015 17.4632 12.0707 25.4416 29.9688 -15.8255 2.45296 -59.736 3.8712 91.179 -34.3348 -5.1071 4.35334 8.82781e-032 1.59028e-015 -3.18055e-015 -3.18055e-015 0 -3.18055e-015 -1.55425 5.66623 -5.60047 
30.6087 95.4362 -31.9014 0.412811 -2.80983 5.81745 -0.0259063 2.73665 -0.224091 7.6029 -5.12158 8.42356 0.0868043 12.2776 -6.11441 0.698294 -4.55673 -0.00802113 0.706739 -4.67439 0.217346 -2.13937 -3.40346 -0.9289 1.231 13.762 -0.463301 -9.01512 -8.85411 -8.22233 2.43232 -8.09454 2.38662 -0.0373039 5.47338 -0.447091 -0.038976 5.47337 -0.447574 2.27599 -2.75458 -6.0126 -26.5004 2.36954 1.59657 -49.9717 41.7005 2.87545 15.4844 -2.47409 -26.8715 7.9985 0.156171 -4.63244 5.29669e-031 -3.18055e-015 9.54166e-015 3.53113e-031 -3.18056e-015 6.36111e-015 19.6591 11.3344 23.956 32.3122 -8.0505 -3.69452 -62.5179 6.21615 89.8583 -31.7502 -5.93376 5.17684 -3.18055e-015 2.38542e-015 3.18055e-015 -1.59028e-015 1.59028e-015 3.18055e-015 -0.68661 5.20832 -5.01525 
30.5046 95.4975 -32.211 0.0295781 -2.16897 3.4816 0.0533517 2.70233 -0.349249 7.87988 -5.24174 10.0367 0.0988707 12.032 -5.51215 0.829929 -4.4066 -0.00832004 0.522073 -4.78553 0.514516 -1.94781 -4.3443 -0.273689 1.02945 13.2456 -0.383189 -8.24943 -8.76783 -6.75961 2.38442 -7.99643 2.40947 0.123421 5.4043 -0.702191 0.123421 5.40431 -0.702193 1.56377 -2.25094 -4.89109 -25.6525 2.4918 0.35664 -49.286 40.8099 1.78908 15.8086 -2.35351 -27.1235 7.74928 0.133819 -4.6481 1.76556e-031 -3.18055e-015 3.18055e-015 -3.18055e-015 -3.18056e-015 -0 20.3661 10.377 22.6883 37.7108 -1.84887 -7.58005 -67.9614 12.189 86.2716 -28.5948 -7.7381 6.8584 3.97569e-016 1.98785e-016 3.18055e-015 4.96962e-016 2.98177e-016 -0 -0.0229605 4.9376 -4.29652 
